<svg preserveAspectRatio="none" width="100%" height="100%" overflow="visible" style="display: block;" viewBox="0 0 251 98" fill="none" xmlns="http://www.w3.org/2000/svg">
<g id="iakov" filter="url(#filter0_gf_0_4)">
<path d="M4.5 91.48V29.2156H24.1432V91.48H4.5ZM4.5 20.5414V4.5H24.1432V20.5414H4.5Z" fill="var(--fill-0, #E9E9E9)"/>
<path d="M58.3248 84.5881H57.9719C56.2076 87.2023 53.8551 89.2223 51.0321 90.767C48.0915 92.3117 44.3275 93.1435 39.7402 93.1435C36.682 93.1435 33.859 92.6682 31.2713 91.8364C28.5659 91.0047 26.331 89.8164 24.5667 88.2717C22.6847 86.6081 21.2732 84.5881 20.2146 82.2116C19.156 79.9539 18.6855 77.221 18.6855 74.1315C18.6855 70.6856 19.2736 67.8338 20.4498 65.5761C21.7437 63.1996 23.3904 61.2984 25.6253 59.8725C27.8602 58.3278 30.3303 57.1395 33.1532 56.3077C35.9762 55.476 39.0345 54.8818 42.2103 54.5254C47.9739 53.8124 52.0907 52.9806 54.4432 52.03C56.6781 51.1983 57.8543 49.6535 57.8543 47.6335C57.8543 45.6135 57.2662 43.9499 55.9723 42.7617C54.6785 41.4546 52.4436 40.8605 49.503 40.8605C46.3272 40.8605 43.9747 41.5734 42.3279 42.9993C40.7988 44.3064 39.8578 46.3264 39.505 48.9406H21.3908C21.5085 45.97 22.0966 43.237 23.3904 40.6228C24.5667 38.0087 26.331 35.751 28.5659 33.8498C30.8008 31.8298 33.7414 30.285 37.1525 29.2156C40.5636 28.1462 44.6804 27.5521 49.3854 27.5521C53.9727 27.5521 57.9719 27.9085 61.1478 28.7403C64.3237 29.5721 67.1466 30.8792 69.3815 32.6615C72.0869 34.5628 73.9688 37.0581 75.2627 40.0287C76.5566 42.9993 77.1447 46.4453 77.1447 50.3665V81.7363C77.1447 84.2316 77.2623 86.2517 77.6152 87.6776C77.8504 89.1035 78.4386 90.0541 79.3795 90.6482V91.48H60.3244C59.8539 90.8858 59.5011 89.9352 59.1482 88.747C58.7953 87.5587 58.5601 86.1328 58.3248 84.5881ZM58.4424 69.2597V61.7737C57.1486 62.4866 55.6195 63.0808 53.8551 63.5561C52.0907 64.1502 50.3264 64.6255 48.3268 65.1008C44.4452 65.9326 41.7398 67.002 40.0931 68.1903C38.3287 69.3785 37.5053 71.1609 37.5053 73.5374C37.5053 76.0327 38.3287 77.8151 39.9754 78.8845C41.5046 79.9539 43.5042 80.4292 45.9743 80.4292C49.6206 80.4292 52.6789 79.3598 54.9137 77.3398C57.2662 75.3198 58.4424 72.7056 58.4424 69.2597Z" fill="var(--fill-0, #E9E9E9)"/>
<path d="M74.6275 91.48V4.5H94.0355V50.2477L112.385 29.2156H134.969L113.326 52.6242L137.556 91.48H114.737L99.9167 66.0514L94.0355 72.3491V91.48H74.6275Z" fill="var(--fill-0, #E9E9E9)"/>
<path d="M136.216 83.994C133.393 81.0234 131.158 77.5774 129.629 73.5374C128.099 69.6162 127.276 65.2196 127.276 60.4666C127.276 55.8324 128.099 51.4359 129.629 47.3959C131.158 43.3558 133.393 39.9099 136.216 36.9393C139.156 33.9686 142.567 31.7109 146.684 30.0474C150.801 28.3838 155.271 27.5521 160.211 27.5521C165.269 27.5521 169.738 28.3838 173.738 30.0474C177.855 31.7109 181.266 33.9686 184.089 36.9393C187.029 39.9099 189.264 43.3558 190.793 47.3959C192.322 51.4359 193.146 55.8324 193.146 60.4666C193.146 65.2196 192.322 69.6162 190.793 73.5374C189.264 77.5774 187.029 81.0234 184.089 83.994C181.266 86.9646 177.855 89.3411 173.738 91.0047C169.738 92.6682 165.269 93.5 160.211 93.5C155.271 93.5 150.801 92.6682 146.684 91.0047C142.567 89.3411 139.156 86.9646 136.216 83.994ZM150.33 74.1315C152.565 77.5774 155.741 79.3598 160.093 79.3598C164.445 79.3598 167.739 77.5774 169.974 74.1315C172.209 70.6856 173.267 66.1702 173.267 60.4666C173.267 54.763 172.209 50.1288 169.974 46.6829C167.739 43.237 164.445 41.4546 160.093 41.4546C155.741 41.4546 152.565 43.237 150.33 46.6829C148.213 50.1288 147.155 54.763 147.155 60.4666C147.155 66.1702 148.213 70.6856 150.33 74.1315Z" fill="var(--fill-0, #E9E9E9)"/>
<path d="M182.63 29.2156H202.861L211.33 57.3772L213.683 65.9326C214.036 67.3585 214.389 68.6656 214.741 69.8538H214.977C215.33 68.6656 215.565 67.3585 215.918 65.9326L216.976 62.0113C217.329 60.4666 217.8 58.9219 218.27 57.3772C221.211 47.99 224.034 38.6028 226.857 29.2156H246.5L225.21 91.48H203.92L182.63 29.2156Z" fill="var(--fill-0, #E9E9E9)"/>
</g>
<defs>
<filter id="filter0_gf_0_4" x="0" y="0" width="251" height="98" filterUnits="userSpaceOnUse" color-interpolation-filters="sRGB">
<feFlood flood-opacity="0" result="BackgroundImageFix"/>
<feBlend mode="normal" in="SourceGraphic" in2="BackgroundImageFix" result="shape"/>
<feTurbulence type="fractalNoise" baseFrequency="0.016583748161792755 0.016583748161792755" numOctaves="3" seed="3525" />
<feDisplacementMap in="shape" scale="9" xChannelSelector="R" yChannelSelector="G" result="displacedImage" width="100%" height="100%" />
<feMerge result="effect1_texture_0_4">
<feMergeNode in="displacedImage"/>
</feMerge>
<feGaussianBlur stdDeviation="1" result="effect2_foregroundBlur_0_4"/>
</filter>
</defs>
</svg>
